<svg width="363" height="257" fill="none" xmlns="http://www.w3.org/2000/svg"><path d="M12.422 127.188c-10.114 60.611-4.844 85.66 163.081 100.035 140.351 12.014 156.192 12.386 165.895-45.765 14.381-86.182-83.185-143.985-172.995-158.972C78.593 7.5 22.536 66.576 12.422 127.188z" fill="#F8F9FA"/><path d="M43.972 152.435h257.966" stroke="#DADCE0" stroke-miterlimit="10" stroke-linecap="round"/><path d="M43.666 151.71c2.787-21.694 9.156-44.38 23.893-44.38s15.341 13.631 30.643 10.915c15.301-2.717 13.805-49.277 40.77-49.277 27.102 0 27.102 47.899 35.513 82.742 7.235 29.973 14.018 57.199 35.512 57.199 20.56 0 26.302-27.792 33.865-57.764 9.124-36.156 14.731-51.478 29.198-51.478s21.045 14.383 28.393 52.043" stroke="#8AB4F8" stroke-miterlimit="10" stroke-linecap="round" stroke-linejoin="round" stroke-dasharray="4 4"/><path d="M44 157a5 5 0 1 0 0-10 5 5 0 0 0 0 10zM301 157a5 5 0 1 0-.001-10.001A5 5 0 0 0 301 157zM174 157a5 5 0 1 0-.001-10.001A5 5 0 0 0 174 157zM244 157a5 5 0 1 0-.001-10.001A5 5 0 0 0 244 157z" fill="#8AB4F8"/></svg>